<?xml version="1.0" encoding="utf-8"?>
<!-- Generator: Adobe Illustrator 22.1.0, SVG Export Plug-In . SVG Version: 6.00 Build 0)  -->
<svg version="1.1" id="Layer_1" xmlns="http://www.w3.org/2000/svg" xmlns:xlink="http://www.w3.org/1999/xlink" x="0px" y="0px"
	 viewBox="0 0 841.9 595.3" style="enable-background:new 0 0 841.9 595.3;" xml:space="preserve">
<style type="text/css">
	.st0{fill:#020202;}
	.st1{fill:#FFFFFF;}
	.st2{fill:#DDDDDD;}
	.st3{fill:none;stroke:#000000;stroke-miterlimit:10;}
</style>
<g>
	<g>
		<path d="M552.1,256.4h-2.3v-0.6h5.3v0.6h-2.3v6h-0.7V256.4z"/>
		<path d="M563.1,255.8v6.6h-0.7v-5.2l-2.6,4.4h-0.3l-2.6-4.4v5.2h-0.7v-6.6h0.6l2.8,4.9l2.8-4.9H563.1z"/>
	</g>
	<g>
		<path d="M356.1,266.9c1.4-1.2,2.9-2,4.6-2.6c1.6-0.5,3.5-0.8,5.7-0.8c2.2,0,4.2,0.4,6.2,1.1c1.9,0.7,3.6,1.8,5.1,3.2
			c1.8,1.6,3.1,3.5,4.1,5.8c1,2.2,1.4,4.5,1.4,7c0,2.6-0.5,5.1-1.6,7.4c-1.1,2.3-2.6,4.3-4.5,6.1c-1.4,1.2-3.1,2.2-4.9,2.9
			c-1.8,0.7-3.8,1-5.8,1c-1.9,0-3.7-0.3-5.4-0.9c-1.7-0.6-3.3-1.5-4.8-2.7v2.7h-7.5v-43.3h7.5V266.9z M356.4,280.8
			c0,2.7,0.9,4.9,2.6,6.8c1.8,1.8,3.9,2.8,6.4,2.8c2.8,0,5.2-0.9,7.1-2.8c1.9-1.8,2.8-4.1,2.8-6.9c0-2.6-0.9-4.9-2.8-6.8
			c-1.9-1.9-4.1-2.9-6.7-2.9c-2.7,0-4.9,0.9-6.7,2.8C357.3,275.7,356.4,278,356.4,280.8z"/>
		<path d="M401,270.9c-3,0.2-5,1-6.2,2.3c-1.2,1.3-1.8,3.7-1.8,7.1V297h-7.6v-32.7h7.1v3.8c1.2-1.5,2.4-2.5,3.8-3.2
			c1.4-0.7,2.9-1,4.6-1V270.9z"/>
		<path d="M402.9,264.3h8.1l8,22.9l8.8-22.9h8L418,307.6h-7.9l4.6-11.5L402.9,264.3z"/>
		<path d="M461,266.9v-13.2h7.5V297H461v-2.7c-1.5,1.2-3.1,2.1-4.8,2.7c-1.7,0.6-3.5,0.9-5.4,0.9c-2.1,0-4-0.3-5.8-1
			c-1.8-0.7-3.5-1.6-4.9-2.9c-2-1.7-3.5-3.7-4.6-6.1c-1.1-2.3-1.6-4.8-1.6-7.4c0-2.4,0.5-4.7,1.5-7s2.4-4.1,4.2-5.8
			c1.5-1.4,3.2-2.5,5.1-3.2c1.9-0.7,4-1.1,6.2-1.1c2.1,0,4,0.3,5.6,0.8C458.1,264.9,459.6,265.7,461,266.9z M460.7,280.8
			c0-2.8-0.9-5.1-2.7-7c-1.8-1.9-4-2.8-6.6-2.8c-2.6,0-4.9,1-6.7,2.9c-1.9,1.9-2.8,4.2-2.8,6.8c0,2.8,0.9,5.1,2.8,6.9
			c1.9,1.8,4.2,2.8,7.1,2.8c2.5,0,4.6-0.9,6.4-2.8C459.8,285.7,460.7,283.4,460.7,280.8z"/>
		<path d="M499.6,264.3h6.8v27.3c0,5.7-1.5,10.1-4.5,13.4c-3,3.2-7.2,4.8-12.5,4.8c-3.9,0-7.2-0.9-9.9-2.8c-2.7-1.9-4.6-4.6-5.9-8.3
			h7.3c0.8,1.5,1.9,2.6,3.4,3.5c1.5,0.8,3.1,1.2,4.9,1.2c3,0,5.5-1,7.4-3s2.8-4.6,2.8-7.8v-0.3c-1.5,1.5-3.1,2.7-5,3.5
			c-1.9,0.8-3.9,1.2-6.2,1.2c-2.2,0-4.3-0.4-6.2-1.1c-2-0.8-3.7-1.8-5.2-3.2c-1.6-1.5-2.9-3.4-3.8-5.5c-0.9-2.1-1.4-4.3-1.4-6.5
			c0-5,1.6-9,4.7-12.3c3.1-3.2,7.1-4.8,11.9-4.8c2.2,0,4.2,0.4,6.1,1.2c1.9,0.8,3.6,2,5.2,3.6V264.3z M479.2,280.1
			c0,2.9,1,5.2,2.9,7.2c1.9,1.9,4.3,2.9,7.1,2.9c2.6,0,4.8-1,6.8-2.9c2-1.9,2.9-4.2,2.9-6.8c0-2.8-1-5.2-2.9-7.2c-1.9-2-4.2-3-6.9-3
			c-2.7,0-5.1,0.9-7,2.8C480.2,275,479.2,277.3,479.2,280.1z"/>
		<path d="M543.1,275.4c-0.5-1.7-1.3-3.3-2.3-4.7c-1.7-2.3-3.8-4.2-6.3-5.4c-2.5-1.3-5.1-1.9-7.9-1.9c-2.2,0-4.4,0.5-6.5,1.4
			c-2.1,1-4,2.3-5.7,4.1c-1.5,1.6-2.7,3.4-3.5,5.4c-0.8,2-1.2,4.2-1.2,6.4c0,2.2,0.4,4.4,1.3,6.5c0.9,2.1,2.1,4,3.6,5.6
			c1.6,1.7,3.5,3,5.5,3.8c2.1,0.9,4.3,1.3,6.7,1.3c3.6,0,6.8-1,9.6-3c2.8-2,4.8-4.7,6.2-8.3h-8.2c-0.8,1.3-1.9,2.3-3.2,3
			c-1.4,0.7-2.9,1.1-4.6,1.1c-2.6,0-4.6-0.7-6.3-2c-1.2-1-2.1-2.3-2.5-3.9h-4.4V283h4.1h3.2h23c0-0.2,0-0.5,0-0.8c0-0.4,0-0.6,0-0.8
			C543.8,279.1,543.6,277.1,543.1,275.4z M517.8,277c0.6-2,1.6-3.6,3.2-4.9c1.6-1.2,3.4-1.8,5.4-1.8c2.3,0,4.3,0.6,5.8,1.7
			c1.5,1.1,2.6,2.8,3.3,5H517.8z"/>
		<path d="M313,272.9h-24.8c-5.2,0-9.4-4.2-9.4-9.4v-0.6c0-5.2,4.2-9.4,9.4-9.4H313c5.2,0,9.4,4.2,9.4,9.4v0.6
			C322.3,268.7,318.1,272.9,313,272.9z"/>
		<path class="st0" d="M329.9,297h-24.8c-5.2,0-9.4-4.2-9.4-9.4V287c0-5.2,4.2-9.4,9.4-9.4h24.8c5.2,0,9.4,4.2,9.4,9.4v0.6
			C339.2,292.8,335,297,329.9,297z"/>
	</g>
</g>
</svg>
